<?xml version="1.0" encoding="UTF-8" standalone="no"?>
<!-- Created with Inkscape (http://www.inkscape.org/) -->

<svg
   xml:space="preserve"
   id="svg5"
   version="1.1"
   viewBox="0 0 134.53635 27"
   height="27mm"
   width="134.53635mm"
   xmlns="http://www.w3.org/2000/svg"
   xmlns:svg="http://www.w3.org/2000/svg"><defs
     id="defs2" /><style
     type="text/css"
     id="style9">
	.st0{fill:#FFFFFF;}
	.st1{fill:#C80B19;}
</style><g
     id="layer2"
     transform="translate(-23.320221,-28.700961)"><path
       style="font-size:32.4556px;font-family:Inter;-inkscape-font-specification:'Inter, @wght=750';font-variation-settings:'wght' 750;stroke-width:0.264583"
       d="m 65.918215,36.520406 v 3.918645 H 55.003637 V 36.520406 Z M 57.3894,32.279049 h 5.26712 v 16.435258 q 0,0.610848 0.184407,0.956611 0.195932,0.334237 0.541695,0.484068 0.345762,0.138305 0.818305,0.138305 0.334237,0 0.691525,-0.05763 0.357289,-0.06915 0.541696,-0.115255 l 0.806779,3.861018 q -0.380339,0.12678 -1.08339,0.288136 -0.691525,0.161356 -1.682712,0.195932 -1.878644,0.08068 -3.25017,-0.461017 Q 58.853129,53.451258 58.115502,52.28719 57.377874,51.123121 57.3894,49.359731 Z M 68.960933,54.223461 V 36.520406 h 5.105764 v 3.157967 h 0.184407 q 0.484068,-1.705763 1.602034,-2.547119 1.117967,-0.852882 2.593221,-0.852882 0.380339,0 0.795255,0.0461 0.42644,0.0461 0.760678,0.138305 v 4.621696 q -0.368814,-0.115254 -1.002712,-0.195932 -0.633899,-0.08068 -1.141018,-0.08068 -1.037288,0 -1.867119,0.461017 -0.818305,0.449492 -1.290847,1.267797 -0.472543,0.80678 -0.472543,1.867119 v 9.819663 z m 20.711157,0.334238 q -2.731526,0 -4.713899,-1.141018 -1.970848,-1.141017 -3.042713,-3.192543 -1.071864,-2.063051 -1.071864,-4.794577 0,-2.731526 1.071864,-4.783052 1.071865,-2.063051 3.042713,-3.204069 1.982373,-1.152542 4.713899,-1.152542 2.731526,0 4.702374,1.152542 1.982374,1.141018 3.054238,3.204069 1.071865,2.051526 1.071865,4.783052 0,2.731526 -1.071865,4.794577 -1.071864,2.051526 -3.054238,3.192543 -1.970848,1.141018 -4.702374,1.141018 z m 0.03458,-4.022374 q 1.106441,0 1.867119,-0.65695 0.772203,-0.656949 1.164068,-1.809492 0.391864,-1.164068 0.391864,-2.673898 0,-1.509831 -0.391864,-2.662374 -0.391865,-1.152543 -1.164068,-1.809492 -0.760678,-0.668475 -1.867119,-0.668475 -1.141018,0 -1.924747,0.668475 -0.783729,0.656949 -1.175593,1.809492 -0.391865,1.152543 -0.391865,2.662374 0,1.50983 0.391865,2.673898 0.391864,1.152543 1.175593,1.809492 0.783729,0.65695 1.924747,0.65695 z m 11.89426,3.688136 V 30.619388 h 9.52 q 2.6739,0 4.58712,1.025763 1.91322,1.025763 2.92746,2.84678 1.02576,1.821018 1.02576,4.206781 0,2.397288 -1.04881,4.218306 -1.03729,1.809492 -2.98508,2.812204 -1.93628,1.002712 -4.65628,1.002712 h -5.97017 v -4.241357 h 5.04814 q 1.36,0 2.25898,-0.472542 0.91051,-0.484068 1.37153,-1.33695 0.46102,-0.852881 0.46102,-1.982373 0,-1.129492 -0.46102,-1.970848 -0.46102,-0.841356 -1.37153,-1.302373 -0.91051,-0.461017 -2.28203,-0.461017 h -3.08882 v 19.258987 z m 26.42782,-23.604073 v 23.604073 h -5.33627 V 30.619388 Z m 3.8495,0 h 6.60406 l 6.24679,15.236614 h 0.27661 l 6.24678,-15.236614 h 6.60407 v 23.604073 h -5.18645 V 39.286509 h -0.19593 l -5.90102,14.810172 h -3.41152 l -5.90102,-14.8678 h -0.19593 v 14.99458 h -5.18644 z"
       id="text514"
       aria-label="troPIM" /></g><g
     id="layer1"
     transform="matrix(0.49576271,0,0,0.49576271,6.6302125,-30.298287)"><g
       id="g508"
       transform="matrix(0.29558501,0,0,0.29556897,-13.373763,61.016954)"><rect
         x="0"
         y="0.33000001"
         class="st0"
         width="184.25"
         height="184.25"
         id="rect484" /><g
         id="g494">
	<polygon
   class="st1"
   points="70.22,143.02 55.11,184.59 160.25,184.59 144.27,143.02 "
   id="polygon486" />
	<polygon
   class="st1"
   points="132.27,111.8 106.74,43.05 81.72,111.8 "
   id="polygon488" />
	<polygon
   class="st1"
   points="15.44,184.59 87.21,0.33 0,0.33 0,184.59 "
   id="polygon490" />
	<polygon
   class="st1"
   points="184.25,0.33 127.16,0.33 184.25,142.92 "
   id="polygon492" />
</g></g></g><style
     type="text/css"
     id="style482">
	.st0{fill:#FFFFFF;}
	.st1{fill:#C80B19;}
</style></svg>
