<svg id="Слой_1" data-name="Слой 1" xmlns="http://www.w3.org/2000/svg" viewBox="0 0 422.23 80.18"><defs><style>.cls-1{fill:#fff;}.cls-2{fill:#c80b19;}</style></defs><rect class="cls-1" y="0.67" width="78.83" height="78.83"/><path class="cls-1" d="M128.72,32.15V44.2H118.38v23a56.58,56.58,0,0,0,.3,8.16A3.37,3.37,0,0,0,120,77.3a4.32,4.32,0,0,0,2.56.75,19.46,19.46,0,0,0,6.08-1.45L130,88.33A30.15,30.15,0,0,1,118,90.59a19,19,0,0,1-7.37-1.37,10.75,10.75,0,0,1-4.82-3.56,14.07,14.07,0,0,1-2.13-5.89,73.84,73.84,0,0,1-.48-10.65V44.2H96.27V32.15h6.94V20.8L118.38,12V32.15Z" transform="translate(-7.38 -10.41)"/><path class="cls-1" d="M153.68,89.3H138.56V32.15h14.05v8.13q3.6-5.76,6.48-7.59a11.93,11.93,0,0,1,6.54-1.83,19.19,19.19,0,0,1,10,2.85L170.9,46.89a13.34,13.34,0,0,0-7.1-2.47,8.36,8.36,0,0,0-5.38,1.75q-2.21,1.74-3.47,6.32t-1.27,19.16Z" transform="translate(-7.38 -10.41)"/><path class="cls-1" d="M178.6,59.92a30.86,30.86,0,0,1,3.71-14.59,25.52,25.52,0,0,1,10.52-10.76A31.27,31.27,0,0,1,208,30.86q13,0,21.25,8.42t8.29,21.28q0,13-8.37,21.5t-21.06,8.53a33.28,33.28,0,0,1-15-3.55,24.34,24.34,0,0,1-10.84-10.42Q178.59,69.76,178.6,59.92Zm15.49.8q0,8.5,4,13a13.19,13.19,0,0,0,19.88,0q4-4.53,4-13.13,0-8.4-4-12.92a13.19,13.19,0,0,0-19.88,0Q194.1,52.23,194.09,60.72Z" transform="translate(-7.38 -10.41)"/><path class="cls-1" d="M249.52,89.3V10.41h25.56q14.52,0,18.94,1.19a20.62,20.62,0,0,1,11.35,7.72q4.58,5.94,4.58,15.36a25.67,25.67,0,0,1-2.64,12.21,21.54,21.54,0,0,1-6.7,7.78,23.15,23.15,0,0,1-8.26,3.74,91.22,91.22,0,0,1-16.52,1.13H265.44V89.3Zm15.92-65.54V46.14h8.72q9.42,0,12.59-1.24a10.39,10.39,0,0,0,5-3.87,10.61,10.61,0,0,0,1.8-6.13A10.2,10.2,0,0,0,291,27.79a11,11,0,0,0-6.4-3.5,78.16,78.16,0,0,0-11.46-.53Z" transform="translate(-7.38 -10.41)"/><path class="cls-1" d="M322.54,89.3V10.41h15.92V89.3Z" transform="translate(-7.38 -10.41)"/><path class="cls-1" d="M353.42,89.3V10.41h23.84l14.31,53.81,14.16-53.81h23.89V89.3h-14.8V27.2L399.16,89.3H383.83L368.22,27.2V89.3Z" transform="translate(-7.38 -10.41)"/><polygon class="cls-2" points="23.58 79.5 68.57 79.5 61.73 61.72 30.04 61.72 23.58 79.5"/><polygon class="cls-2" points="34.96 48.36 56.59 48.36 45.67 18.95 34.96 48.36"/><polygon class="cls-2" points="37.31 0.67 0 0.67 0 79.5 6.61 79.5 37.31 0.67"/><polygon class="cls-2" points="78.83 61.68 78.83 0.67 54.41 0.67 78.83 61.68"/></svg>