<svg id="logo" data-name="logo" xmlns="http://www.w3.org/2000/svg" viewBox="0 0 452.46 85.04"><defs><style>.cls-1{fill:#fff;}.cls-2{fill:#c80b19;}</style></defs><rect class="cls-1" width="85.04" height="85.04"/><polygon class="cls-2" points="25.44 85.04 73.96 85.04 66.59 65.85 32.41 65.85 25.44 85.04"/><polygon class="cls-2" points="37.72 51.45 61.05 51.45 49.27 19.72 37.72 51.45"/><polygon class="cls-2" points="40.25 0 0 0 0 85.04 7.13 85.04 40.25 0"/><polygon class="cls-2" points="85.04 65.81 85.04 0 58.69 0 85.04 65.81"/><path class="cls-1" d="M138.06,34.19V46.84h-10.9V71.26a60.9,60.9,0,0,0,.31,8.64,3.52,3.52,0,0,0,1.42,2,4.52,4.52,0,0,0,2.7.8A20.76,20.76,0,0,0,138,81.19l1.36,12.43a31.53,31.53,0,0,1-12.6,2.4A19.91,19.91,0,0,1,119,94.56a11.35,11.35,0,0,1-5.08-3.76,14.79,14.79,0,0,1-2.24-6.25,78.16,78.16,0,0,1-.51-11.29V46.84h-7.33V34.19h7.33V22l16-9.35V34.19Z" transform="translate(-8.27 -10.98)"/><path class="cls-1" d="M164.72,96H148.5V34.19h15.07v9q3.87-6.2,7-8.17a12.73,12.73,0,0,1,7-2,20.54,20.54,0,0,1,10.68,3.08l-5,14.21a14.17,14.17,0,0,0-7.62-2.67,9,9,0,0,0-5.77,1.89c-1.58,1.25-2.82,3.53-3.72,6.81S164.72,66.51,164.72,77Z" transform="translate(-8.27 -10.98)"/><path class="cls-1" d="M191.45,63.62a32.83,32.83,0,0,1,3.9-15.41,26.91,26.91,0,0,1,11.06-11.37,32.75,32.75,0,0,1,16-3.92q13.63,0,22.34,8.9t8.72,22.48q0,13.7-8.8,22.71T222.5,96a34.77,34.77,0,0,1-15.75-3.75,25.65,25.65,0,0,1-11.4-11Q191.45,74,191.45,63.62Zm16.29.85q0,9,4.24,13.76a13.83,13.83,0,0,0,20.9,0q4.22-4.78,4.22-13.87c0-5.92-1.41-10.46-4.22-13.65a13.83,13.83,0,0,0-20.9,0Q207.74,55.5,207.74,64.47Z" transform="translate(-8.27 -10.98)"/><path class="cls-1" d="M267.53,96V11H295q15.58,0,20.32,1.28a22.19,22.19,0,0,1,12.18,8.32q4.91,6.41,4.9,16.56a27.82,27.82,0,0,1-2.83,13.17,23.24,23.24,0,0,1-7.18,8.38,24.62,24.62,0,0,1-8.86,4q-6.12,1.23-17.72,1.22H284.62V96Zm17.09-70.65V49.5H294q10.09,0,13.5-1.34A11.26,11.26,0,0,0,312.81,44a11.49,11.49,0,0,0,1.94-6.62A11,11,0,0,0,312,29.72,11.74,11.74,0,0,0,305.16,26a81.17,81.17,0,0,0-12.29-.58Z" transform="translate(-8.27 -10.98)"/><path class="cls-1" d="M345.86,96V11H363V96Z" transform="translate(-8.27 -10.98)"/><path class="cls-1" d="M379,96V11h25.57l15.36,58L435.1,11h25.63V96H444.86V29.08L428.06,96H411.61L394.87,29.08V96Z" transform="translate(-8.27 -10.98)"/></svg>