<?xml version="1.0" encoding="utf-8"?>
<!-- Generator: Adobe Illustrator 23.0.3, SVG Export Plug-In . SVG Version: 6.00 Build 0)  -->
<svg version="1.1" id="Слой_1" xmlns="http://www.w3.org/2000/svg" xmlns:xlink="http://www.w3.org/1999/xlink" x="0px" y="0px"
	 viewBox="0 0 400 91.4" style="enable-background:new 0 0 400 91.4;" xml:space="preserve">
<style type="text/css">
	.st0{fill:#C70112;}
	.st1{fill:#FFFFFF;stroke:#FFFFFF;stroke-width:2.724;stroke-linecap:round;stroke-linejoin:round;stroke-miterlimit:10;}
	.st2{fill:#E8E8E8;}
	.st3{fill:#E8E8E8;stroke:#E8E8E8;stroke-width:2.7243;stroke-miterlimit:10;}
</style>
<g>
	<polygon class="st0" points="246.4,10.3 101.7,10.3 101.7,81.4 265.5,81.4 265.5,29.4 	"/>
	<g>
		<path class="st1" d="M125,28h-15.3l4.4-7.8h34.7V28h-15.3v40.3H125V28z"/>
		<path class="st1" d="M173.1,31.3c-6.4-0.3-10.6,3.4-12.9,8.9V32h-8.3v36.4h8.3V54.5c0-9.6,5.1-14.4,12.4-14.4h0.5
			c0,0,2.8-5.2,4.6-8.2C176.4,31.5,174.8,31.3,173.1,31.3z"/>
		<path class="st1" d="M177.1,50.2c0-10.4,7.4-18.9,17.8-18.9c11.6,0,17.4,9.1,17.4,19.6c0,0.5-0.1,1.9-0.1,2.3h-26.7
			c0.9,5.9,5.1,9.2,10.5,9.2c4.1,0,7-1.5,9.8-4.3l4.9,4.3c-3.4,4.1-8.2,6.8-14.9,6.8C185.3,69.2,177.1,61.6,177.1,50.2z M204.1,47.7
			c-0.5-5.4-3.7-9.6-9.2-9.6c-5.1,0-8.7,3.9-9.4,9.6C185.5,47.7,204.1,47.7,204.1,47.7z"/>
		<path class="st1" d="M218.7,50.3c0-10.4,8.3-19,19.4-19c11.2,0,19.3,8.5,19.3,19c0,10.3-8.3,18.9-19.5,18.9
			C226.9,69.2,218.7,60.7,218.7,50.3z M249.2,50.3c0-6.4-4.6-11.7-11.2-11.7c-6.7,0-11,5.2-11,11.7c0,6.3,4.6,11.7,11.1,11.7
			C244.9,62,249.2,56.7,249.2,50.3z"/>
	</g>
	<path class="st2" d="M310.4,22.1c-3.6-3.4-8.4-5.2-14.4-5.2h-20.6v55h11.3V55.3h8.3c3.8,0,7.3-0.7,10.4-2.1
		c3.1-1.4,5.7-3.6,7.6-6.6s2.9-6.5,2.9-10.6C315.8,30.2,314,25.6,310.4,22.1z M286.7,28.1h8.6c2.9,0,5.2,0.7,6.8,2.1
		c1.6,1.4,2.3,3.3,2.3,5.9c0,2.5-0.8,4.4-2.4,5.9s-3.8,2.2-6.7,2.2h-8.6L286.7,28.1L286.7,28.1z"/>
	<polygon class="st2" points="383.1,16.9 369.1,40.4 355.1,16.9 343.8,16.9 343.8,72 354.9,72 354.9,38 368,59.1 369.8,59.1 
		383,37.9 383,72 394.3,72 394.3,16.9 	"/>
	<path class="st3" d="M332.2,16.9h-8.5c-0.8,0-1.4,0.6-1.4,1.4v52.3c0,0.8,0.6,1.4,1.4,1.4h8.5c0.8,0,1.4-0.6,1.4-1.4V18.3
		C333.6,17.5,333,16.9,332.2,16.9z"/>
	<g>
		<polygon class="st2" points="5.7,46 12.4,42.2 42.2,60 71.8,42.2 78.7,46 42.2,68.3 		"/>
		<polygon class="st2" points="5.7,59.1 12.4,55.2 42.2,73.1 71.8,55.2 78.7,59.1 42.2,81.4 		"/>
		<g>
			<g>
				<path class="st2" d="M42.4,10L5.7,32.7l36.7,22.9l36.3-22.9L42.4,10z M42.6,15l8.4,5.2l-12.2,7.4l-8.4-5.3L42.6,15z M31.8,42
					l25.8-16l2.3,1.6l-25.2,16L31.8,42z M39.5,46.7l25.8-16l2.3,1.6l-25.2,16L39.5,46.7z"/>
			</g>
		</g>
	</g>
</g>
</svg>
